# xmcd
#
# Track frame offsets:
#	150
#	11752
#	27215
#	37147
#	52855
#	69562
#	84885
#	95480
#	110770
#	127600
#	142592
#	166842
#
# Disc length: 2456 seconds
#
# Revision: 1
# Processed by: cddbd v1.4PL0 Copyright (c) Steve Scherf et al.
# Submitted via: audiograbber 1.81.02
#
DISCID=8b09960c
DTITLE=Breno Reis e Marco Viola - Primeiro CD
DYEAR=1900
DGENRE=
TTITLE0=Piracicabano
TTITLE1=Oh! Saudade
TTITLE2=No batido do Pagode
TTITLE3=Um amor de Paixão
TTITLE4=Flor de Cuiabá
TTITLE5=Chamada a cobrar
TTITLE6=Chão de Goiás
TTITLE7=Cobra Venenosa
TTITLE8=Acompanhante
TTITLE9=Faca que não corta
TTITLE10=Pode voltar paixão
TTITLE11=Zé do Boi
EXTD=
EXTT0=
EXTT1=
EXTT2=
EXTT3=
EXTT4=
EXTT5=
EXTT6=
EXTT7=
EXTT8=
EXTT9=
EXTT10=
EXTT11=
PLAYORDER=
